<svg xmlns="http://www.w3.org/2000/svg" xml:space="preserve" width="295mm" height="140mm" style="shape-rendering:geometricPrecision;text-rendering:geometricPrecision;image-rendering:optimizeQuality;fill-rule:evenodd;clip-rule:evenodd" viewBox="0 0 29500 14000">
  <path d="M1793.92 337.56v15.87c0 31.88-13.02 60.85-34.03 81.89v.25c-21.01 21.01-50.09 34.03-82.13 34.03-25.35 0-48.62 1.9-69.75 5.69-20.85 3.73-41.4 9.61-61.55 17.57l-3.1 1.13a309 309 0 0 0-52.63 27.5c-17.67 11.52-34.62 25.12-50.69 40.69-16.13 15.68-30.17 32.15-42.02 49.36-11.67 16.94-21.37 34.71-28.99 53.22-7.75 18.82-13.61 38.84-17.52 59.94-3.86 20.99-5.83 44.02-5.83 69.02v2541.76h2354.77V785.77c0-44.2-7.93-84.52-23.78-120.86-16.01-36.73-40.41-70.56-73.12-101.38-17.21-16.21-34.96-30.27-53.15-42.08-18.17-11.79-36.79-21.51-55.77-29.08l-2.16-.78c-19.1-7.47-38.69-13.03-58.61-16.6-19.9-3.58-41.75-5.39-65.43-5.39-31.9 0-60.86-13.04-81.89-34.03l-.25-.25c-21.01-21.04-34.04-50.04-34.04-81.89v-15.87c0-32.04 13.03-61.11 34.04-82.12a64 64 0 0 1 5.38-4.82c20.5-18.16 47.38-29.22 76.76-29.22h1234.59c31.89 0 60.85 13.03 81.89 34.04h.25c21.01 21.01 34.04 50.08 34.04 82.12v15.87c0 31.85-13.03 60.85-34.04 81.89l-.25.25c-21.04 21.01-50.03 34.03-81.89 34.03-23.87 0-46.03 1.89-66.42 5.61-20.89 3.83-40.83 9.53-59.72 17.02-19.33 7.86-38.04 17.61-56.02 29.3-18.12 11.79-35.82 25.8-52.99 42-16.58 15.62-31.05 32.09-43.28 49.33-11.93 16.81-21.9 34.59-29.82 53.23-7.93 18.64-13.89 38.37-17.85 59.13l-.05.25c-3.98 21.07-6 43.84-6 68.25v5331.44c0 20.44 1.93 39.51 5.76 57.13 3.75 17.33 9.26 33.34 16.44 47.92 7.35 14.94 16.75 29.18 28.1 42.64l2.65 3.37c11.03 12.61 24.18 24.79 39.36 36.51 18.01 13.89 36.47 25.99 55.29 36.22 18.27 9.92 37.5 18.34 57.59 25.2 20.14 6.88 40.51 11.99 61.03 15.29 20.41 3.27 42.41 4.92 65.93 4.92 31.86 0 60.85 13.02 81.89 34.03l.25.25c21 21.04 34.04 50 34.04 81.89v23.53c0 32.05-13.03 61.12-34.04 82.13l-5.34 4.8c-20.51 18.18-47.42 29.23-76.8 29.23H3368.43c-31.9 0-60.86-13.03-81.89-34.03h-.25c-21.01-21.01-34.04-50.08-34.04-82.13v-23.53c0-31.89 13.04-60.85 34.04-81.89l.25-.25c21.03-20.99 49.99-34.03 81.89-34.03 23.35 0 45.7-1.89 66.94-5.66 21.71-3.92 41.87-9.47 60.37-16.63 19.12-7.39 37.79-16.84 55.9-28.26 18.11-11.4 35.87-25.05 53.24-40.9 16.13-14.7 30.25-30.4 42.32-47.06 11.72-16.18 21.53-33.41 29.37-51.62 7.94-18.48 13.92-38.01 17.85-58.45 4.01-20.88 6.03-43.52 6.03-67.8V3677.86H1345.68v2439.52c0 21.07 1.89 40.52 5.6 58.23 3.66 17.49 9.18 34.01 16.5 49.52 7.34 15.56 16.73 30.49 28.06 44.67l2.56 3.45c10.85 13.08 23.68 25.71 38.39 37.83 16.91 13.91 34.71 26.2 53.31 36.76 18.26 10.36 37.21 19.02 56.72 25.82 19.81 6.92 40.49 12.13 61.96 15.58 21.15 3.4 44.17 5.12 68.98 5.12 32.04 0 61.12 13.02 82.13 34.03 1.73 1.73 3.32 3.53 4.81 5.39 18.16 20.49 29.22 47.38 29.22 76.75v23.53c0 32.07-13.02 61.12-34.03 82.13s-50.09 34.03-82.13 34.03H435.32c-31.89 0-60.85-13.03-81.88-34.03h-.25c-21.01-21.01-34.04-50.08-34.04-82.13v-23.53c0-31.89 13.04-60.85 34.04-81.89l.25-.25c21.03-20.99 49.99-34.03 81.88-34.03 24.22 0 46.99-1.8 68.19-5.32 21.52-3.59 42-8.91 61.35-15.93a339 339 0 0 0 56.74-26.67c18.1-10.64 35.75-23.33 52.94-38 15.98-13.63 29.89-28.13 41.61-43.36a239.3 239.3 0 0 0 28.19-46.94c7.8-17.23 13.59-35.15 17.32-53.66 3.78-18.81 5.69-39.79 5.69-62.89V793.72c0-47.61-7.82-90.45-23.46-128.51-15.57-37.95-39.22-72.31-70.86-103.03-16.08-15.6-33.02-29.22-50.67-40.73a307 307 0 0 0-55.43-28.63l-6.76-2.84c-17.14-6.22-35.87-11.13-56.13-14.68-21.61-3.78-44.54-5.7-68.72-5.7-31.89 0-60.85-13.04-81.88-34.03l-.25-.25c-21.01-21.04-34.04-50.04-34.04-81.89v-15.87c0-32.04 13.03-61.11 34.04-82.12a64 64 0 0 1 5.38-4.82c20.5-18.16 47.38-29.22 76.75-29.22h1242.44c32.04 0 61.12 13.03 82.13 34.04s34.03 50.05 34.03 82.12m3139.4-116.16H6175.7c31.89 0 60.86 13.03 81.89 34.04h.25c21.01 21.01 34.04 50.08 34.04 82.12v23.65c0 31.86-13.03 60.86-34.04 81.89l-.25.25c-21.03 21.01-50.03 34.04-81.89 34.04-24.9 0-48.46 1.94-70.52 5.77-21.61 3.74-42.35 9.43-62.11 16.98-19.71 7.54-38.28 16.84-55.65 27.81-17.65 11.15-34.59 24.36-50.77 39.55-15.64 14.7-29.36 30.43-41.08 47.1-11.45 16.28-20.97 33.51-28.51 51.57-7.84 18.78-13.7 38.45-17.51 58.92-3.88 20.82-5.84 43.72-5.84 68.63v4104.75c0 98.11 8.24 193.3 24.66 285.43 16.41 92.09 40.96 181.17 73.58 267.1 16.87 44.08 34.9 86.02 54.06 125.7 19.59 40.54 40.5 79.29 62.67 116.16 23.05 37.97 46.93 73.77 71.7 107.27 25.71 34.75 52.42 67.46 80.07 98.08 27.48 30.41 57.01 60.13 88.5 89.11 30.79 28.34 62.7 55.08 95.64 80.17 32.6 24.84 66.59 48.26 101.86 70.24 36.12 22.51 72.3 42.82 108.47 60.91 35.9 17.95 73.07 33.92 111.38 47.82 37.15 13.47 75.47 24.86 114.83 34.09 39.01 9.15 78.47 16 118.27 20.53 39.63 4.5 80.6 6.77 122.79 6.77 43.68 0 85.83-2.27 126.4-6.77 41.27-4.58 81.65-11.44 120.99-20.53 40.02-9.24 78.72-20.62 116.06-34.05 38.03-13.7 75.29-29.68 111.65-47.86 36.14-18.06 72.33-38.37 108.42-60.85 35.36-22.02 69.43-45.5 102.11-70.38 32.69-24.9 64.48-51.59 95.25-79.93 30.34-27.98 59.78-57.76 88.23-89.27l2.94-3.06c27.78-30.9 53.93-62.99 78.4-96.18 25.2-34.18 48.8-69.55 70.69-105.96l3.13-5.03c21.29-35.74 41.44-73.32 60.36-112.64 19.19-39.87 36.98-81.28 53.28-124.16l.97-2.41c16.33-43.21 30.59-86.87 42.7-130.83 11.79-42.72 21.88-87.49 30.22-134.19l.45-2.23c7.92-44.89 13.92-90.83 17.96-137.71l.16-1.62c3.96-46.8 5.97-94.72 5.97-143.72V762.25c0-23.11-1.9-44.01-5.64-62.61-3.75-18.62-9.4-36.12-16.88-52.44-7.11-15.5-16.44-30.58-27.91-45.16-11.77-14.98-25.31-28.76-40.52-41.3-16.9-13.91-34.69-26.17-53.26-36.71-18.3-10.4-37.29-19.05-56.84-25.9-19.83-6.94-40.51-12.16-61.95-15.61-21.18-3.4-44.19-5.13-68.99-5.13-32.04 0-61.12-13.03-82.13-34.04l-4.8-5.34c-18.17-20.51-29.23-47.42-29.23-76.8v-23.65c0-32.07 13.02-61.11 34.03-82.12s50.06-34.04 82.13-34.04H8990.9c32.04 0 61.12 13.03 82.13 34.04s34.03 50.05 34.03 82.12v23.65c0 31.89-13.02 60.86-34.03 81.89v.25c-21.01 21.01-50.09 34.04-82.13 34.04-24.85 0-47.91 1.71-69.09 5.12-21.36 3.44-42.02 8.67-61.85 15.62-19.6 6.85-38.62 15.51-56.94 25.91-18.55 10.53-36.31 22.78-53.21 36.7-15.2 12.51-28.74 26.3-40.5 41.26-11.48 14.59-20.82 29.69-27.94 45.2-7.45 16.28-13.09 33.78-16.84 52.43-3.74 18.61-5.63 39.51-5.63 62.62v4199.17c0 56.09-2.89 112.84-8.67 170.17-5.68 56.16-14.19 111.68-25.51 166.52-11.26 54.52-25.45 108.58-42.51 162.03-17.16 53.77-36.91 106.11-59.22 156.92-22.54 51.45-46.85 100.88-72.82 148.15-26.46 48.16-54.73 94.45-84.71 138.78-29.38 43.55-61.53 86.46-96.31 128.63-35.23 42.67-71.36 82.54-108.3 119.48l-3.62 3.36c-37.63 37.43-76.18 72.47-115.62 105.05-41.4 34.2-84.41 66.4-128.97 96.55-44.09 29.84-90.3 58.03-138.51 84.48-47.26 25.94-96.8 50.27-148.52 72.9-52.31 22.92-104.84 42.76-157.41 59.41-52.36 16.58-106.9 30.66-163.5 42.19-55.62 11.34-111.98 19.85-169.02 25.51-58.37 5.77-116.24 8.67-173.53 8.67-57.3 0-115.19-2.9-173.57-8.68-57.04-5.65-113.42-14.16-169.03-25.5-56.59-11.52-111.13-25.6-163.47-42.17-52.59-16.66-105.12-36.48-157.47-59.43-51.47-22.55-100.89-46.85-148.18-72.85-48.22-26.5-94.56-54.79-138.93-84.82-43.52-29.35-86.38-61.46-128.52-96.22-42.66-35.17-82.5-71.29-119.46-108.25-36.98-36.98-73.13-76.83-108.35-119.49-34.86-42.22-67.08-85.16-96.57-128.74l-2.81-4.57c-29.56-43.96-56.79-88.59-81.61-133.8-25.97-47.31-50.32-96.88-73.01-148.64-22.27-50.88-42.03-103.28-59.19-157.08-17.02-53.43-31.18-107.42-42.41-161.87a1636 1636 0 0 1-25.51-166.52c-5.78-57.33-8.67-114.08-8.67-170.17V785.77c0-22.95-1.96-44.43-5.8-64.35-3.82-19.85-9.55-38.66-17.1-56.29-7.52-17.58-17.06-34.46-28.57-50.57-11.67-16.34-25.52-32.06-41.51-47.06-16.14-15.19-33.06-28.39-50.67-39.53-17.37-10.98-35.97-20.28-55.71-27.83-19.79-7.56-40.53-13.25-62.16-17-22.08-3.83-45.61-5.75-70.55-5.75-31.9 0-60.85-13.04-81.89-34.04l-.25-.25c-21.01-21.03-34.03-50.03-34.03-81.89v-23.65c0-32.04 13.02-61.11 34.03-82.12a64 64 0 0 1 5.39-4.82c20.49-18.16 47.37-29.22 76.75-29.22m4271.69 6312.66v-23.53c0-31.89 13.04-60.85 34.04-81.89l.25-.25c21.03-20.99 49.99-34.03 81.89-34.03 22.67 0 43.08-.9 61.19-2.64a524 524 0 0 0 55.63-8.42c17.55-3.64 34.34-8.18 50.24-13.52 15.74-5.27 31.1-11.53 45.96-18.7 17.5-8.43 33.84-16.86 48.89-25.22 16.14-8.96 31.25-17.96 45.26-26.92l1.89-1.16-.08-.13 2.22-1.32c13.41-8.66 25.96-17.34 37.58-25.97a648 648 0 0 0 35.87-28.68c13.9-11.89 25.37-22.15 34.48-30.75 9.13-8.63 19.21-18.82 30.06-30.31 9.5-10.11 17.85-19.5 24.93-28.07 6.94-8.42 13.87-17.52 20.73-27.22l20.55-29.39c9.41-14.37 18.3-28 27.26-42.56 2.7-4.62 4.9-8.62 6.51-11.82l.37-.71-.12-.07c462.65-889.7 879.21-1829.84 1295.81-2770.08 398.12-898.57 796.34-1797.28 1237.23-2657.04l.91-1.71-.13-.08c1.47-2.67 2.48-4.99 2.96-6.9l.46-2.97c-.05-1.09-.48-2.74-1.24-4.85-1.39-3.82-3.63-8.18-6.67-13-2.87-4.58-5.83-8.38-8.81-11.35h-.25c-2.56-2.56-4.67-4.31-6.29-5.21l-.44-.26c-1.97-.89-4.2-1.68-6.68-2.22-3.67-.81-8.08-1.21-13.11-1.21H10028.9c-30.37 0-58.89 2.07-85.44 6.2s-53.19 10.61-79.78 19.36c-26.75 8.79-51.98 19.42-75.63 31.82-24.24 12.71-48.14 27.83-71.54 45.26-21.65 16.12-41.11 33.64-58.29 52.45-16.83 18.44-31.23 37.89-43.13 58.3a333.3 333.3 0 0 0-29.18 65.24c-7.48 23.11-12.79 47.94-15.83 74.4l-.43 3.13c-4.34 30.5-20.26 56.66-42.67 74.46-23.25 18.48-53.56 28.12-85.32 24.49l-6.45-1.05-9.99-2.14c-3.33-.71-6.53-1.68-9.62-2.85l-20.47-6.7c-27.64-9.07-49.58-27.6-63.4-50.72-13.98-23.36-19.76-51.4-15-79.2l70.02-668.5c3.03-29.56 17.08-55.44 37.65-74.02v-.27c20.72-18.7 48.14-29.96 77.6-29.96l5.56.24 17.97-.09v-.26c31.86 0 60.85 13.02 81.89 34.03l.25.25c21 21.04 34.04 49.99 34.04 81.89l.04 1.74h3847.13c31.89 0 60.85 13.03 81.89 34.04h.25c21.01 21.01 34.04 50.08 34.04 82.12v15.87c0 31.85-13.03 60.85-34.04 81.89l-.25.25c-21.04 21.01-50.03 34.03-81.89 34.03-27.43 0-52.43 1.14-74.88 3.37-22.17 2.2-44.29 5.74-66.27 10.58-20.95 4.61-40.01 10.04-57.06 16.26-17.1 6.23-33.38 13.58-48.75 22-18.95 10.4-36.34 20.6-52.14 30.52-15.61 9.81-31.21 20.37-46.72 31.59-15.65 11.36-28.96 21.65-39.89 30.85l.1.13c-11.87 10.02-22.79 19.89-32.61 29.56-14.71 15.99-28.28 31.57-40.63 46.72a935 935 0 0 0-36.53 47.79c-11.32 15.86-22.41 32.49-33.22 49.85-10.83 17.39-20.44 33.82-28.71 49.19-225.43 483.05-2532.16 5404.88-2531.88 5426.87.22 2.01.89 4.4 1.95 7.07 1.73 4.33 4.54 9.59 8.37 15.64 3.2 5.08 6.5 9.39 9.8 12.82 2.36 2.45 4.53 4.27 6.42 5.41l3.65 1.19c2.19.55 4.87.84 7.96.84h3199.31l5.15.2 9.38-.11c36.3-.27 65.96 28.92 66.24 65.21v.51h.26v210.58c0 36.44-29.55 65.98-65.98 65.98H9321.19c-31.9 0-60.86-13.03-81.89-34.03h-.25c-21.01-21.01-34.04-50.08-34.04-82.13M15431.19 221.4c77.02 0 153.51 5.53 229.38 16.58a1561 1561 0 0 1 223.43 49.41c72.82 21.79 144.65 49.13 215.39 81.94 69.95 32.44 139.27 70.66 207.88 114.52 67.96 43.44 133.1 90.29 195.31 140.44 63.52 51.23 124 105.56 181.37 162.93 56.89 56.89 112.69 118.8 167.24 185.6 53.47 65.46 105 135.02 154.5 208.57 49.48 73.54 95.97 149.62 139.41 228.15 43.64 78.92 84.58 160.83 122.78 245.68 38 84.45 73.63 172.56 106.81 264.28 33.25 91.9 63.53 185.75 90.74 281.44 27.16 95.42 51.3 194.03 72.33 295.68 20.71 100.08 37.99 201.64 51.79 304.55l.26 2.35a4639 4639 0 0 1 30.99 312.41 4914 4914 0 0 1 10.44 319.9c0 219.07-13.87 432.3-41.6 639.64-27.75 207.54-69.16 407.32-124.21 599.27-27.32 95.27-57.66 188.71-90.94 280.16-33.18 91.15-68.76 178.74-106.69 262.63-37.85 83.76-78.86 165.49-122.98 245.09-43.71 78.87-90.11 154.78-139.13 227.62-49.31 73.35-100.76 142.78-154.21 208.21-53.83 65.89-109.69 127.8-167.49 185.63-58.19 58.29-118.66 112.76-181.32 163.31-62.22 50.21-127.39 97.06-195.4 140.5-68.62 43.84-137.95 82.02-207.88 114.46-70.74 32.8-142.57 60.13-215.39 81.93-73.14 21.88-147.66 38.38-223.47 49.38-75.87 11.04-152.35 16.56-229.34 16.56-77.02 0-153.4-5.52-229.09-16.54-75.7-11.02-149.97-27.49-222.79-49.36-72.19-21.72-143.8-49.17-214.71-82.29-70.56-32.96-139.28-71.02-206.03-114.14-66.19-42.73-130.62-89.61-193.18-140.52-62.25-50.68-122.34-105.13-180.16-163.33-57.54-57.9-113.16-119.79-166.76-185.61-53.31-65.47-104.66-134.9-153.98-208.19-48.86-72.59-95.23-148.37-139.09-227.19-43.67-78.54-84.9-160.27-123.56-245.08-39.15-85.83-75.25-173.43-108.22-262.66-33.09-89.53-63.87-182.77-92.33-279.65a4004 4004 0 0 1-74.48-295.14c-21.04-99.14-38.71-200.83-52.92-305.01-14.23-104.06-24.89-209.3-31.95-315.65a4886 4886 0 0 1-10.75-324.03c0-107.07 3.59-214.05 10.73-320.85 7.05-105.2 17.7-209.77 31.93-313.65 14.25-103.83 31.93-205.49 53-304.84 21.01-99.1 45.84-197.8 74.44-296.01 28.72-98.58 59.54-192.58 92.33-281.93 33.36-90.89 69.3-178.71 107.72-263.33 38.2-84.14 79.48-166.15 123.75-245.9 43.9-79.09 90.4-155.11 139.4-227.93 49.32-73.28 100.68-142.7 154-208.14 53.6-65.81 109.23-127.71 166.78-185.58 57.86-58.2 117.94-112.68 180.21-163.34 62.53-50.91 126.93-97.76 193.09-140.48 66.79-43.15 135.55-81.25 206.11-114.22 70.88-33.12 142.46-60.57 214.63-82.28 72.77-21.88 147.04-38.37 222.73-49.39 75.71-11.03 152.13-16.56 229.15-16.56m0 6086.45c54.41 0 107.31-4.34 158.63-12.99a920 920 0 0 0 152.18-39.19c50.27-17.63 99.64-39.74 148.04-66.21 48.94-26.78 96.83-57.94 143.58-93.42 47.53-36.14 94.09-76.14 139.6-119.99 44.77-43.12 88.23-89.94 130.32-140.38l2.9-3.25c41.36-49.87 81.05-102.84 119.01-158.88 38.24-56.42 75.36-117.18 111.31-182.16l2.93-4.83c34.52-62.69 67.7-128.91 99.48-198.58 32.28-70.77 62.71-144.41 91.24-220.81 28.07-75.19 54.76-154.7 80.02-238.42a4541 4541 0 0 0 69.1-255.8c20.53-86.04 38.9-175.72 55.02-269.03 15.85-91.73 29.07-184.93 39.59-279.44 10.6-95.32 18.54-191.69 23.77-288.99 5.14-95.95 7.74-195.87 7.74-299.65 0-103.76-2.6-203.66-7.74-299.62-5.23-97.3-13.17-193.67-23.77-288.98-10.52-94.5-23.74-187.7-39.59-279.43-16.12-93.31-34.49-183-55.02-269.03-20.52-85.9-43.59-171.21-69.1-255.77-25.27-83.78-52-163.35-80.1-238.61-28.51-76.36-58.96-150-91.23-220.75-31.75-69.64-65.9-137.45-102.34-203.31l-2.34-4.69c-34.52-62.08-70.95-121.39-109.19-177.84-38.8-57.27-79.33-111.26-121.57-161.91l-.12.11c-42.1-50.45-85.59-97.3-130.36-140.42-45.47-43.79-92.03-83.79-139.56-119.87-46.77-35.51-94.68-66.71-143.63-93.5-48.37-26.48-97.74-48.55-147.99-66.17a919 919 0 0 0-152.11-39.17c-51.34-8.65-104.26-12.97-158.7-12.97-54.36 0-107.17 4.34-158.35 12.98-51.33 8.69-101.74 21.75-151.15 39.2-49.78 17.55-98.7 39.6-146.67 66.1-48.37 26.73-95.55 57.77-141.42 93.07-47.71 36.69-94.01 76.77-138.77 120.16-45.33 43.92-88.74 90.73-130.11 140.34-41.5 49.75-82.18 103.81-121.93 162.1-39.13 57.35-76.99 118.51-113.48 183.36-36.8 65.33-71.51 133.15-104.02 203.36-32.8 70.8-63.55 144.15-92.15 219.93-29.39 77.83-56.46 157.44-81.16 238.71-25.11 82.66-48.2 167.88-69.19 255.56-20.56 86.09-38.95 175.85-55.07 269.2-15.85 91.66-29.08 184.78-39.58 279.22-10.6 95.33-18.55 191.69-23.77 288.99-5.15 95.96-7.75 195.86-7.75 299.65s2.6 203.71 7.75 299.68c5.22 97.33 13.17 193.69 23.77 289 10.5 94.44 23.73 187.56 39.58 279.23 16.12 93.34 34.51 183.11 55.07 269.2 20.93 87.52 43.97 172.61 69.06 255.15 24.72 81.36 51.82 161.03 81.21 238.92 28.67 75.9 59.46 149.34 92.29 220.22 32.49 70.17 67.17 137.94 103.96 203.27 36.38 64.64 74.18 125.69 113.33 183.04 39.12 57.3 79.83 111.31 122.08 161.93l4.01 4.99c41.17 49.04 83.6 94.72 127.25 136.93l3.18 3.33c42.69 41.06 87.53 79.68 134.44 115.78 45.88 35.29 93.06 66.34 141.48 93.06 47.99 26.49 96.95 48.56 146.73 66.11 49.42 17.43 99.85 30.52 151.17 39.19 51.13 8.65 103.9 12.99 158.21 12.99M18428.91 8783.36c251.64-112.19 495.31-215.49 731.07-309.9 235.79-94.42 475.16-157.91 718.08-190.56l8.24 37.23c-117.74 62.57-228.56 127.03-332.3 193.26-103.78 66.3-214.65 130.68-332.38 193.29-128.35 74.43-256.58 141.94-384.66 202.54-128.11 60.64-260.68 123.36-397.76 188.18-95.26 45.12-162.37 128.32-201.37 249.63-200.65 609.35-401.02 1220.23-600.95 1832.72-199.97 612.4-400.33 1223.32-600.98 1832.67-44.92 124.09-89.84 248.22-134.71 372.35-44.92 124.13-89.87 248.26-134.71 372.39-55.89 163.66-131.77 237.24-227.55 220.84-94.41-10.22-121.03-100.53-79.77-270.9 10.49-101.01 34.21-194.54 71.09-280.55 36.91-86.05 77.52-177.33 122-273.79 73.3-144.4 136.35-290.85 188.99-439.22 52.75-148.38 105.43-296.8 158.06-445.17 153.97-463.75 305.24-924.61 453.98-1382.48 148.62-457.84 296.96-917.24 444.97-1378.22 7.8-24.29 14.11-47.81 18.86-70.65 4.82-22.88 13.39-50.94 25.77-84.24-31.16 7.88-57.46 15.24-79.05 22-21.51 6.75-41.22 14.35-59.11 22.8-172.74 81.78-343.68 164.34-512.84 247.77-169.09 83.48-340.75 162.98-514.9 238.49-107.24 50.75-171.42 132.54-192.49 245.41-77.89 242.59-156.62 489.04-236.03 739.27-79.5 250.23-161.89 494.95-247.1 734.16-45.35 151.75-99.08 295.51-161.12 431.22-62.17 135.67-123.13 275.96-183.16 420.96-23.36 72.82-49.3 141.62-77.73 206.52-28.35 64.9-54.96 130.61-79.65 197.2-42.71-14.12-61.45-39.57-56.42-76.2 4.99-36.68 10.78-70.25 17.17-100.73 43.95-157.99 84.6-316.14 122-474.36 37.27-158.27 80.94-317.79 130.84-478.63 75.16-255.02 152.8-506.13 232.98-753.18 80.22-247.14 160.81-499.66 241.95-757.49 3.18-15.24 5.27-28.23 6.15-38.92.93-10.78 5.27-28.23 13.07-52.52-29.83 14.12-52.51 23.16-68.07 27.1-15.61 3.94-35.27 11.5-59.11 22.8-285.98 135.31-571.96 270.58-857.94 405.93a49087 49087 0 0 0-855.92 415.17c-414.29 209.82-826.81 420.32-1237.4 631.79a192618 192618 0 0 1-1246.4 635.97c-142.99 67.63-281.92 138.56-416.9 212.71-134.95 74.11-273.27 148.14-414.86 222.01-29.83 14.07-66.3 27.9-109.37 41.41-43.1 13.51-70.08-4.54-81.06-54.2-17.01-46.85-9.69-88.06 21.91-123.57 31.65-35.58 67.64-66.31 107.97-92.2 110.42-65.99 219.06-132.82 325.86-200.45 106.76-67.72 210.79-125.46 312.08-173.43 442.72-230.04 879.8-455.7 1311.38-676.98 431.42-221.28 863.28-441.03 1295.47-659.21 645.29-325.91 1298.55-645.26 1959.94-958.18 107.24-50.75 176.64-138.45 208.25-263.14 158.51-472.83 317.46-944.1 476.61-1413.8 159.24-469.7 317.38-944.06 474.57-1423.05 58.66-151.23 112.83-300.29 162.53-447.26 49.74-147.01 106.19-300.62 169.44-460.85 10.94-39.49 28.27-80.22 51.84-122.28 23.6-42.02 70.24-69.25 139.97-81.63-2.37 49.09-5.67 93.57-9.97 133.3-4.35 39.8-15 80.86-31.97 123.16-65.54 209.34-130.69 420.2-195.54 632.63a87006 87006 0 0 1-195.55 632.63c-124.57 388.2-249.22 776.39-373.8 1164.54-124.65 388.15-249.22 776.35-373.91 1164.58-3.18 15.2-6.4 30.44-9.57 45.64-3.18 15.28-7.28 41.21-12.39 77.93l152-71.9 1027.7-486.27c47.65-22.55 81.38-48.77 101.09-78.69 19.7-29.88 39.65-73.62 59.79-131.17 153.93-463.74 306-928.38 456.27-1393.89 150.31-465.48 298.08-934.9 443.28-1408.26 82.47-251.67 165.71-507.09 249.79-766.37 84.12-259.24 166.67-517.79 247.78-775.62 10.97-39.49 25.01-80.42 41.89-122.72 16.97-42.34 52.04-62.33 105.24-60.08 79.73 3.42 102.85 78.21 69.4 224.34-39.33 148.98-79.14 296.39-119.19 442.23a10842 10842 0 0 1-130.2 437.13c-164.06 537.09-329.12 1069.6-495.15 1597.45-166.07 527.84-331.86 1057.21-497.2 1588.11-13.79 27.1-23.12 58.95-28.19 95.66-5.07 36.67-15.36 79.26-30.92 127.79m3811.31-1648.87c-71.49 122.96-165.83 239.61-282.84 349.87-117.13 110.26-233.1 195.99-347.86 257.19-114.84 61.16-217.1 82.11-306.97 62.88-89.83-19.22-146.89-98.51-171.21-237.92-2.82-12.39-6.64-22.56-11.66-30.48-5.11-7.88-13.35-22.84-24.81-44.88-40.78 53.61-75.64 104.39-104.51 152.32-28.79 47.97-63.61 98.76-104.43 152.32-55.89 74.47-108.49 149.1-157.78 223.81-49.26 74.75-106.2 144.56-170.78 209.42-52.71 59.23-108.85 102.94-168.44 131.12-119.14 56.38-192.53 22.52-220.03-101.65-12.43-55.89-15.12-112.87-8.29-171.01 18.38-125.26 50.63-246.86 96.95-364.75 46.24-117.94 92.49-235.8 138.85-353.73 53.08-86.9 107-126.11 161.52-117.62 58.63 27.1 72.42 89.19 41.3 186.25-18.86 63.74-39.81 125.1-62.93 184.09-23.12 58.95-47.09 121.72-71.81 188.3-11.02 39.45-29.12 106.32-54.33 200.57 31.69-35.54 57.54-59.79 77.73-72.78 20.18-12.94 37.76-29.87 52.87-50.74a19233 19233 0 0 1 251.6-401.95c85.69-133.17 169.57-267.12 251.6-401.98 21.03-23.65 39.24-52.88 54.6-87.58 15.37-34.7 36.6-65.26 63.66-91.8 15.08-20.87 39-39.04 71.77-54.57 32.82-15.52 62.49-22.67 89.07-21.55 78.37-2.77 106.28 49.18 83.84 155.78-2.25 49.09-6.35 97.39-12.35 144.79-5.91 47.33-10.73 92.53-14.39 135.39-3.66 132.05 12.79 213.44 49.18 244.24 36.43 30.72 84.48 32.05 144.03 3.86 59.63-28.19 122.4-71.61 188.35-130.28 66.02-58.63 129.76-112.79 191.12-162.41 28.43-20.31 65.54-53.32 111.34-99 45.88-45.68 87.46-80.78 124.77-105.31 37.4-24.53 63.7-31.85 79.06-21.95 15.36 9.85 6.07 57.09-27.79 141.74m1839.47-1991.71c-143.43 95.3-286.46 185.25-428.96 269.81-142.51 84.61-284.81 177.65-426.88 279.14-221.4 159.6-401.46 349.39-540.31 569.43-138.84 219.99-251.11 463.46-336.8 730.3-23.8 100.44-54.89 168.28-93.13 203.58-38.24 35.23-72.86 49.87-103.78 43.91-30.92-5.91-54.25-29.19-69.81-69.84-15.6-40.65-15.6-85.21 0-133.78 60.92-289.4 164.67-556.27 311.31-800.55 146.65-244.28 343.48-462.58 590.53-654.91 106.32-84.6 215.09-165.23 326.51-241.91 111.31-76.72 225.26-149.46 341.63-218.26 113.72-81.19 230.25-156.9 349.59-227.11 119.43-70.17 237.33-139.65 353.69-208.49 28.39-20.27 52.4-38.48 71.86-54.57 19.46-16.04 36.51-20.71 51.19-13.95 32.53-1.65 63.61-2.61 93.17-2.9 29.55-.28 53.07 9.21 70.45 28.39 29.39 13.59 43.34 39.53 42.02 77.89-1.45 38.36-11.22 75.6-29.64 111.75-19.66 29.87-36.03 59.91-49.1 90.11-13.11 30.16-33.09 58.5-60.15 85.04-176.89 241.43-353.45 484.42-529.57 728.98a120977 120977 0 0 1-529.66 728.94c-99.96 143.31-202.01 284.2-306.24 422.69-104.23 138.48-207.04 276.25-308.29 413.36-16.53 14.64-22.28 48.22-17.21 100.69 80.7-51.87 162-100.65 244.11-146.33 81.99-45.63 162.66-97.55 241.95-155.61 70.09-40.05 186.82-107.28 350.23-201.74 163.38-94.45 349.11-199.44 557.16-315.05 208.09-115.6 426.23-237.64 654.51-366.23 228.19-128.56 446.01-252.16 653.42-370.87 207.4-118.7 393.06-223.73 557.16-315.04 164.09-91.32 280.46-160.12 349.22-206.41 88.02-48.49 176.25-88.5 264.67-120.06 88.46-31.57 181.07-22.2 277.77 28.02-26.13 60.4-59.03 105.11-98.63 134.19-39.65 29.03-81.95 60.99-126.87 96.02-80.62 51.87-208.57 127.83-383.89 227.91-175.31 100.09-371.5 210.06-588.44 329.85-217.05 119.79-447.14 247.53-690.21 383.16-243.15 135.59-474.36 265.55-693.71 389.89-219.27 124.29-416.54 236.51-591.86 336.6-175.32 100.12-303.99 172.94-385.98 218.66a73032 73032 0 0 0-452.77 296.47c-146.37 96.71-297.96 192.41-454.7 287.19-143.47 95.3-238.29 112.75-284.57 52.31-62.41-73.38-43.59-181.71 56.25-325.02a28761 28761 0 0 1 255.38-362.58c85.49-119.26 174.27-238.45 266.39-357.51 196.55-271.3 393.5-541.11 590.78-809.32 197.31-268.28 397.92-536.32 601.79-804.29 9.24-18.09 20.66-40.61 34.38-67.71 13.79-27.06 31.2-52.44 52.23-76.16-7.32-3.42-11.94-9.73-14.07-19.02-2.01-9.37-6.72-15.68-14.12-19.06m4275.47-1024.89c68.76-46.2 134.82-89.5 198.27-129.8 63.5-40.33 126.67-82.19 189.44-125.61 44.95-34.99 102.41-72.46 172.58-112.51 70.05-40.05 130.6-78.94 181.43-116.73 29.84-14.08 52.11-24.65 67.07-31.69 14.88-7.08 38.56-11.42 71.13-13.11 20.63 3.98 40.78 13.27 60.48 27.99 19.74 14.64 29.39 35.83 28.95 63.49 2.7 12.39-5.79 33.54-25.49 63.45-19.71 29.88-35.51 47.65-47.41 53.28-56.78 40.66-109.49 77.57-158.11 110.86-48.57 33.26-101.97 67.07-160.2 101.49-107.72 78.37-214.96 151.44-321.72 219.07-106.76 67.68-210.99 139.33-312.8 214.89-62.73 43.38-109.45 99.8-140.17 169.2-97.63 183.36-177.69 334.43-240.22 453.13-62.61 118.79-146.33 223.57-251.24 314.37-77.96 64.34-154.36 105.59-229.28 123.93-74.99 18.29-137.84 1.73-188.74-49.62-50.83-51.39-77.81-143.23-80.83-275.56-2.97-132.3 29.2-313.89 96.51-544.65 49.98-160.77 115.72-317.06 197.27-468.82 81.59-151.75 170.94-305.52 268.08-461.17 39.45-59.84 82.84-116.37 130.25-169.69 47.48-53.28 106.19-99.97 176.32-140.02 98.56-60.31 179.82-79.89 243.76-58.7 63.93 21.19 104.62 85.97 122.07 194.29 10.98 49.7 13.39 105.11 7.16 166.32-6.15 61.28-9.05 122.64-8.56 184.12-5.03 36.67-11.91 72.5-20.59 107.52-8.69 34.95-17.17 78.45-25.41 130.28m-847.68 452.49c-72.38 178.3-98.56 312.44-78.61 402.47 19.94 90.03 61.32 135.59 124.09 136.8 62.81 1.08 129.92-37.52 201.41-115.93 71.5-78.41 122.64-196.87 153.32-355.42-95.34 45.07-176.64 64.66-243.75 58.71-67.15-5.96-119.27-48.18-156.46-126.63m623.5-973.94c-193.41 166.92-320.07 367.49-380.11 601.63-6.47 30.48-6.87 58.15-1.4 82.96 5.54 24.85 25.93 42.58 61.24 53.36 43.99 20.3 96.58 12.58 157.78-23.2 61.12-35.79 98.2-84.2 110.94-145.12 24.81-66.59 43.71-137.24 56.7-212.03 13.11-74.75 22.32-144.28 27.87-208.62 9.12-18.09 8-38.08-3.5-60.11-11.42-22-21.27-51.67-29.52-88.87" style="fill:#2b2a29;fill-rule:nonzero"/>
</svg>
